<?xml version="1.0" encoding="UTF-8" standalone="no"?>
<svg
   role="img"
   viewBox="0 0 24 24"
   version="1.1"
   id="svg1"
   sodipodi:docname="kubernetes-inverse.svg"
   inkscape:version="1.3 (0e150ed6c4, 2023-07-21)"
   xmlns:inkscape="http://www.inkscape.org/namespaces/inkscape"
   xmlns:sodipodi="http://sodipodi.sourceforge.net/DTD/sodipodi-0.dtd"
   xmlns="http://www.w3.org/2000/svg"
   xmlns:svg="http://www.w3.org/2000/svg">
  <defs
     id="defs1" />
  <sodipodi:namedview
     id="namedview1"
     pagecolor="#ffffff"
     bordercolor="#000000"
     borderopacity="0.25"
     inkscape:showpageshadow="2"
     inkscape:pageopacity="0.0"
     inkscape:pagecheckerboard="0"
     inkscape:deskcolor="#d1d1d1"
     inkscape:zoom="76.291667"
     inkscape:cx="12.006554"
     inkscape:cy="12"
     inkscape:window-width="3840"
     inkscape:window-height="2066"
     inkscape:window-x="3829"
     inkscape:window-y="-11"
     inkscape:window-maximized="1"
     inkscape:current-layer="svg1" />
  <title
     id="title1">Kubernetes icon</title>
  <path
     style="fill:#ffffff;fill-opacity:1;stroke-width:0.0131076"
     d="M 8.1795685,20.571042 C 7.9393666,20.50649 7.7895666,20.254949 7.8368946,19.995631 c 0.020371,-0.111615 0.1362501,-0.339985 0.2660418,-0.524304 0.1880272,-0.26702 0.3563271,-0.540987 0.4652808,-0.757405 0.1195931,-0.237553 0.1260409,-0.269668 0.084337,-0.420066 l -0.024672,-0.08897 0.044673,-0.105924 c 0.02457,-0.05826 0.042856,-0.10774 0.040636,-0.109962 C 8.7109712,17.9868 8.6339972,17.93789 8.5421406,17.880353 7.900093,17.478196 7.2906128,16.916427 6.8268008,16.29929 6.3983189,15.729162 6.0839958,15.12734 5.8392789,14.40852 5.8326489,14.38905 5.8268779,14.3891 5.7083561,14.40962 l -0.091753,0.01592 -0.090213,-0.04622 C 5.4455271,14.33789 5.425828,14.33321 5.3363301,14.3341 5.1674136,14.3358 4.717003,14.471963 4.2599679,14.659509 c -0.3194118,0.131072 -0.5246072,0.165259 -0.6901377,0.11498 -0.365379,-0.11098 -0.4731882,-0.50721 -0.2128911,-0.782436 0.1208474,-0.127779 0.3023844,-0.192442 0.608108,-0.216608 0.5595112,-0.04423 0.9026489,-0.08924 1.1138151,-0.146123 0.085469,-0.02302 0.1156644,-0.03857 0.1655878,-0.08527 0.033581,-0.03141 0.076511,-0.07941 0.095399,-0.106667 0.029549,-0.04264 0.046792,-0.05278 0.1235643,-0.0727 0.049073,-0.01273 0.09643,-0.0276 0.1052393,-0.03304 0.012546,-0.0078 0.01174,-0.04518 -0.00372,-0.172712 C 5.4342703,12.081 5.5910909,10.949853 6.0112998,9.9393494 6.1509645,9.6034885 6.3561738,9.2088256 6.537813,8.9267472 L 6.609249,8.8158102 6.5284644,8.7432409 C 6.4526275,8.6751163 6.4465739,8.6653382 6.4296214,8.5835852 6.3959713,8.4213081 6.3611879,8.3778107 6.1249127,8.2025396 5.9694512,8.087217 5.6738214,7.9002545 5.4462043,7.7733103 5.0534472,7.5542661 4.9056716,7.4005836 4.8623233,7.1660909 4.8126385,6.8973211 5.0140662,6.6514334 5.2973577,6.6350338 c 0.2100569,-0.01216 0.3755376,0.07748 0.6207199,0.3362389 0.2806377,0.2961782 0.6304932,0.6408142 0.7313705,0.7204592 0.1773259,0.140003 0.2069437,0.1531616 0.3447407,0.1531616 0.1191028,0 0.1193597,7.21e-5 0.1986973,0.055707 0.043692,0.030639 0.083989,0.055707 0.089548,0.055707 0.00556,0 0.093098,-0.081431 0.1945305,-0.1809583 C 8.396248,6.873336 9.5498899,6.2760101 10.825253,6.0416928 c 0.163311,-0.030005 0.521981,-0.077739 0.584121,-0.077739 h 0.04328 l 0.0093,-0.1063067 c 0.0087,-0.099843 0.01269,-0.1105078 0.06556,-0.1754069 0.09375,-0.1151008 0.105751,-0.1627702 0.103963,-0.4129887 -0.0017,-0.2429378 -0.02647,-0.4918216 -0.08531,-0.8585473 -0.03396,-0.2116284 -0.03912,-0.2746445 -0.03438,-0.4194429 0.0064,-0.1946165 0.02811,-0.2665725 0.11559,-0.3826946 0.0949,-0.1259819 0.219853,-0.1898418 0.373906,-0.191097 0.217102,-0.00177 0.407821,0.1603776 0.471954,0.4012485 0.03,0.1126734 0.02267,0.3265488 -0.02048,0.5973967 -0.06051,0.3798608 -0.08351,0.6169089 -0.08465,0.872798 -0.0012,0.2669494 0.0071,0.29712 0.109165,0.3960521 0.04963,0.048114 0.05145,0.053055 0.0605,0.1642974 0.0067,0.08264 0.01425,0.1146914 0.02694,0.1146914 0.0097,0 0.107787,0.011588 0.218002,0.02575 1.408093,0.1809402 2.720036,0.8129172 3.720786,1.7923429 l 0.191065,0.1869939 0.09439,-0.066502 0.09439,-0.066502 0.12088,-0.00279 c 0.08762,-0.00202 0.133501,-0.00941 0.166756,-0.026848 0.141183,-0.074045 0.531157,-0.4334511 0.816965,-0.7529255 0.292759,-0.3272457 0.50139,-0.4506877 0.726224,-0.4296922 0.161828,0.015112 0.311113,0.1151564 0.379056,0.2540295 0.04582,0.093653 0.05674,0.2411287 0.02576,0.3477265 -0.04963,0.1707137 -0.219308,0.3420338 -0.486504,0.4912053 -0.423834,0.2366207 -0.779402,0.4711658 -0.949009,0.6259995 -0.07053,0.064385 -0.118958,0.162978 -0.119131,0.2425267 -1.22e-4,0.055954 -0.0046,0.062995 -0.09396,0.1463272 l -0.09384,0.087545 0.07881,0.1223783 c 0.516232,0.8016017 0.851156,1.7274291 0.973658,2.6914661 0.05924,0.466158 0.06625,0.983982 0.01945,1.435282 -0.01159,0.111742 -0.02211,0.214414 -0.02339,0.22816 -0.0019,0.02044 0.01509,0.02978 0.09316,0.05125 0.09091,0.025 0.09857,0.03019 0.160172,0.108576 0.03558,0.04528 0.08994,0.09684 0.120799,0.114581 0.07292,0.04193 0.241022,0.08215 0.501759,0.120056 0.196453,0.02856 0.309497,0.03963 0.734026,0.07187 0.38266,0.02906 0.598609,0.137077 0.704647,0.352471 0.03786,0.0769 0.04248,0.0985 0.04248,0.198266 0,0.100125 -0.0046,0.121235 -0.04315,0.199616 -0.0509,0.103392 -0.11898,0.167384 -0.238436,0.224118 -0.178755,0.0849 -0.415938,0.05601 -0.777967,-0.09475 -0.490859,-0.204408 -0.982033,-0.345945 -1.124576,-0.324059 -0.03339,0.0051 -0.09403,0.02939 -0.134764,0.05392 l -0.07406,0.0446 -0.100284,-0.01919 c -0.05516,-0.01055 -0.104375,-0.01466 -0.109377,-0.0091 -0.005,0.0055 -0.02531,0.0602 -0.04512,0.121481 -0.05928,0.183347 -0.186133,0.490472 -0.300704,0.72804 -0.322878,0.669506 -0.727272,1.237878 -1.258776,1.7692 -0.373219,0.37309 -0.765171,0.684161 -1.180705,0.937061 -0.05008,0.03048 -0.09289,0.05704 -0.09512,0.05903 -0.0022,0.002 0.0138,0.04964 0.03564,0.105883 l 0.03971,0.10227 -0.02741,0.09024 c -0.02376,0.07821 -0.02548,0.09984 -0.01293,0.162323 0.03057,0.152236 0.269027,0.576381 0.54932,0.977093 0.218118,0.311826 0.301068,0.507357 0.287923,0.678697 -0.01646,0.214482 -0.1447,0.3809 -0.337697,0.438214 -0.08883,0.02638 -0.15974,0.02629 -0.249574,-3.25e-4 -0.230078,-0.06816 -0.380479,-0.270881 -0.498249,-0.671566 -0.146637,-0.4989 -0.324795,-0.950962 -0.428207,-1.086542 -0.02766,-0.03626 -0.139102,-0.101493 -0.214554,-0.125586 -0.01167,-0.0037 -0.0435,-0.04707 -0.07074,-0.09632 -0.02724,-0.04925 -0.05135,-0.09174 -0.05356,-0.09442 -0.0022,-0.0027 -0.120793,0.03401 -0.263503,0.08153 -0.568401,0.189246 -1.112826,0.29092 -1.739518,0.324863 -0.775728,0.04201 -1.63533,-0.08315 -2.4068345,-0.350463 -0.1161418,-0.04024 -0.212746,-0.07114 -0.214676,-0.06867 -0.00193,0.0025 -0.02782,0.04906 -0.057533,0.103534 -0.052912,0.097 -0.055584,0.09952 -0.1298808,0.12267 -0.1299122,0.04048 -0.2376319,0.183713 -0.3359935,0.446781 -0.07906,0.211445 -0.2070873,0.589194 -0.2574778,0.759695 -0.1229302,0.415948 -0.2683157,0.603478 -0.5183434,0.668602 -0.09304,0.02423 -0.1223473,0.02411 -0.2153856,-8.92e-4 z M 12.57018,17.570691 c 0.216776,-0.02426 0.483648,-0.07138 0.675041,-0.119185 0.16892,-0.04219 0.403146,-0.111874 0.4175,-0.124209 0.01024,-0.0088 -1.228143,-2.2654 -1.275142,-2.323596 -0.1051,-0.130138 -0.152709,-0.165256 -0.270424,-0.199477 -0.151376,-0.04401 -0.344403,0.01244 -0.447772,0.13094 -0.02723,0.03121 -0.339676,0.580948 -0.694332,1.221634 l -0.644828,1.164884 0.08776,0.0303 c 0.328525,0.113417 0.86235,0.213444 1.300208,0.243628 0.152702,0.01053 0.670661,-0.0046 0.851993,-0.02492 z m 2.357972,-0.864855 c 0.836259,-0.564432 1.518785,-1.415259 1.889103,-2.354933 0.06999,-0.177588 0.07427,-0.194641 0.04894,-0.19482 -0.009,-6.4e-5 -0.591211,-0.09739 -1.293777,-0.216275 -0.840856,-0.142289 -1.309904,-0.21616 -1.372528,-0.21616 -0.246176,0 -0.433234,0.172211 -0.44603,0.410625 -0.0028,0.0529 0.0023,0.121068 0.01186,0.155873 0.01762,0.06444 1.022301,2.50033 1.031354,2.500553 0.0028,6.9e-5 0.06182,-0.03812 0.131076,-0.08486 z M 9.7146794,15.578062 c 0.5092336,-1.22924 0.5478186,-1.335216 0.5284666,-1.451493 -0.02639,-0.158564 -0.117031,-0.286576 -0.2486075,-0.351104 -0.051589,-0.0253 -0.090646,-0.03303 -0.1835063,-0.03633 -0.1037074,-0.0037 -0.27228,0.02202 -1.39445,0.212575 -0.7020651,0.11922 -1.2791737,0.219455 -1.2824636,0.222745 -0.00329,0.0033 0.021846,0.07573 0.055858,0.160984 0.3545471,0.888673 0.9478803,1.660217 1.7166314,2.232229 0.2314092,0.172188 0.2861107,0.209423 0.3014746,0.205215 0.00721,-0.002 0.2351775,-0.539645 0.5065964,-1.194822 z m 2.6532776,-2.40657 0.358028,-0.172035 0.04009,-0.172039 c 0.02205,-0.09462 0.06324,-0.272082 0.09153,-0.394358 l 0.05143,-0.22232 -0.249317,-0.311815 -0.249316,-0.311814 h -0.410476 -0.410475 l -0.239295,0.298198 c -0.131612,0.164008 -0.244134,0.304609 -0.250048,0.312446 -0.0093,0.01227 0.15827,0.782109 0.173512,0.797319 0.01075,0.01073 0.712949,0.348454 0.724505,0.348454 0.0065,0 0.172914,-0.07742 0.36983,-0.172036 z M 8.124811,12.596889 c 1.2999598,-0.375095 1.374727,-0.400511 1.4583464,-0.495748 0.099819,-0.113688 0.1406451,-0.294373 0.098597,-0.436367 -0.011582,-0.03911 -0.046331,-0.104566 -0.077221,-0.145457 -0.052237,-0.06915 -1.9932088,-1.8196993 -2.0176435,-1.8196993 -0.01677,0 -0.073455,0.096775 -0.1957794,0.3342433 -0.4497914,0.87318 -0.6342076,1.813345 -0.5536241,2.82241 0.00728,0.09119 0.012156,0.108179 0.029634,0.103309 0.011505,-0.0032 0.5774657,-0.166417 1.2576906,-0.362691 z m 9.041723,0.278043 c 0.02023,-0.14408 0.01145,-0.794077 -0.0135,-0.999323 -0.06023,-0.495428 -0.165231,-0.922217 -0.332178,-1.350213 -0.103222,-0.264626 -0.389554,-0.8257783 -0.421358,-0.8257783 -0.0058,0 -0.160503,0.1343554 -0.343754,0.2985676 -0.183252,0.1642117 -0.61782,0.5536347 -0.965708,0.8653827 -0.347887,0.311748 -0.653061,0.588807 -0.678163,0.615687 -0.207647,0.222351 -0.135446,0.579354 0.14411,0.712566 0.0648,0.03088 2.534867,0.75497 2.584529,0.757647 0.009,4.86e-4 0.01985,-0.03053 0.02602,-0.07454 z m -6.206983,-2.581683 c 0.128184,-0.05723 0.218488,-0.170505 0.252641,-0.3169051 0.02161,-0.092637 0.175534,-2.6825554 0.160332,-2.6977572 -0.0048,-0.00484 -0.104859,0.00702 -0.222255,0.02637 -0.999041,0.1646484 -1.8747937,0.5856107 -2.6407497,1.269373 -0.081425,0.072687 -0.1459377,0.1384801 -0.1433621,0.1462068 0.0071,0.021309 2.1285358,1.5231635 2.2044768,1.5606455 0.08926,0.04406 0.102524,0.04658 0.223468,0.04258 0.07145,-0.0024 0.124167,-0.01209 0.165449,-0.03052 z m 2.362747,0.01573 c 0.120308,-0.03134 0.03458,0.02672 1.594141,-1.079567 0.198252,-0.1406317 0.438613,-0.3110599 0.534134,-0.3787291 0.09552,-0.067669 0.173212,-0.1270068 0.172644,-0.1318612 C 15.621564,8.7046814 15.366851,8.4775886 15.23119,8.3693041 14.653849,7.9084694 13.976067,7.573135 13.256092,7.3921193 13.040021,7.3377946 12.640269,7.2657929 12.627214,7.2788481 c -0.01439,0.01439 0.139518,2.6324852 0.159437,2.7121288 0.04076,0.1629651 0.158259,0.2775561 0.327494,0.3193791 0.08881,0.02195 0.119377,0.02175 0.208153,-0.0014 z"
     id="path10" />
</svg>
